<?xml version="1.0" encoding="UTF-8" standalone="no"?>
<svg
   xmlns:dc="http://purl.org/dc/elements/1.1/"
   xmlns:cc="http://creativecommons.org/ns#"
   xmlns:rdf="http://www.w3.org/1999/02/22-rdf-syntax-ns#"
   xmlns:svg="http://www.w3.org/2000/svg"
   xmlns="http://www.w3.org/2000/svg"
   xmlns:sodipodi="http://sodipodi.sourceforge.net/DTD/sodipodi-0.dtd"
   xmlns:inkscape="http://www.inkscape.org/namespaces/inkscape"
   version="1.1"
   id="svg833"
   width="30.669924"
   height="30.859873"
   viewBox="0 0 30.669924 30.859873"
   sodipodi:docname="logo.svg"
   inkscape:version="1.0.1 (3bc2e813f5, 2020-09-07)"
   inkscape:export-filename="C:\Users\ksmar\WebstormProjects\post-office\src\Assets\logo.png"
   inkscape:export-xdpi="96"
   inkscape:export-ydpi="96">
  <metadata
     id="metadata839">
    <rdf:RDF>
      <cc:Work
         rdf:about="">
        <dc:format>image/svg+xml</dc:format>
        <dc:type
           rdf:resource="http://purl.org/dc/dcmitype/StillImage" />
        <dc:title></dc:title>
      </cc:Work>
    </rdf:RDF>
  </metadata>
  <defs
     id="defs837" />
  <sodipodi:namedview
     pagecolor="#ffffff"
     bordercolor="#666666"
     borderopacity="1"
     objecttolerance="10"
     gridtolerance="10"
     guidetolerance="10"
     inkscape:pageopacity="0"
     inkscape:pageshadow="2"
     inkscape:window-width="1366"
     inkscape:window-height="697"
     id="namedview835"
     showgrid="false"
     inkscape:zoom="22.488189"
     inkscape:cx="15.342924"
     inkscape:cy="22.105925"
     inkscape:window-x="-8"
     inkscape:window-y="-8"
     inkscape:window-maximized="1"
     inkscape:current-layer="layer1" />
  <g
     inkscape:groupmode="layer"
     id="layer1"
     inkscape:label="Logo"
     transform="translate(-4.6249998,-0.17773416)">
    <path
       id="path846"
       style="opacity:1;fill:#24a681;fill-opacity:1;stroke:none;stroke-width:0.884775;stroke-opacity:1"
       d="M 19.957031,0.17773438 C 11.487878,0.17962259 4.6236313,7.2283729 4.625,15.921875 c 5.091e-4,4.655482 2.0085171,9.071955 5.484375,12.0625 L 9.9804688,10.755859 c 0,0 2.4845512,-1.5666361 4.7968752,-0.632812 l 5.339844,9.423828 2.226562,-3.626953 3.669922,-5.9804689 c 0,0 2.73496,-1.513382 4.513672,0.3320309 l 0.05078,5.646485 4.716797,-0.002 C 35.293138,7.222453 28.426244,0.17630051 19.957031,0.17773438 Z m 10.621094,15.74218762 0.09961,11.257812 c 2.952499,-2.961714 4.617032,-7.020247 4.617188,-11.257812 z m -16.525391,2.470703 0.09882,11.206294 v 0 c 2.050828,0.996548 3.584843,1.440548 5.853854,1.440688 2.585675,-8.5e-5 3.854414,-0.476462 6.119594,-1.756357 -2.275274,1.274586 0,0 0,0 l -0.333984,-10.646484 -5.556641,7.314453 z"
       sodipodi:nodetypes="ccccccccccccccccccccccccc" />
  </g>
</svg>
